<?xml version="1.0" encoding="UTF-8" standalone="no"?>
<svg
   xmlns:dc="http://purl.org/dc/elements/1.1/"
   xmlns:cc="http://creativecommons.org/ns#"
   xmlns:rdf="http://www.w3.org/1999/02/22-rdf-syntax-ns#"
   xmlns:svg="http://www.w3.org/2000/svg"
   xmlns="http://www.w3.org/2000/svg"
   viewBox="0 0 1052.3625 744.09998"
   height="744.09998"
   width="1052.3625"
   xml:space="preserve"
   version="1.1"
   id="svg2"><metadata
     id="metadata8"><rdf:RDF><cc:Work
         rdf:about=""><dc:format>image/svg+xml</dc:format><dc:type
           rdf:resource="http://purl.org/dc/dcmitype/StillImage" /></cc:Work></rdf:RDF></metadata><defs
     id="defs6"><clipPath
       id="clipPath28"
       clipPathUnits="userSpaceOnUse"><path
         id="path30"
         d="m 0,595.28 841.89,0 L 841.89,0 0,0 0,595.28 Z" /></clipPath></defs><g
     transform="matrix(1.25,0,0,-1.25,0,744.1)"
     id="g10"><path
       id="path12"
       style="fill:#273038;fill-opacity:1;fill-rule:nonzero;stroke:none"
       d="m 259.114,337.062 -217.084,0 0,217.085 217.084,0 0,-217.085 z" /><path
       id="path14"
       style="fill:#273038;fill-opacity:1;fill-rule:nonzero;stroke:none"
       d="m 528.733,337.062 -217.085,0 0,217.085 217.085,0 0,-217.085 z" /><g
       transform="translate(101.1938,398.2839)"
       id="g16"><path
         id="path18"
         style="fill:#67c3d1;fill-opacity:1;fill-rule:nonzero;stroke:none"
         d="m 0,0 41.152,-19.391 0,11.443 -29.007,13.734 29.007,13.374 0,11.351 L 0,11.119 0,0 Z m 42.513,-21.536 -43.874,20.672 0,12.847 0.391,0.184 43.483,20.489 0,-14.368 L 15.36,5.771 42.513,-7.086 l 0,-14.45 z" /></g><g
       transform="translate(152.5483,367.2356)"
       id="g20"><path
         id="path22"
         style="fill:#67c3d1;fill-opacity:1;fill-rule:nonzero;stroke:none"
         d="m 0,0 11.949,0 34.486,73.217 -11.714,0 L 0,0 Z m 12.813,-1.361 -14.965,0 36.012,75.939 14.721,0 -35.768,-75.939 z" /></g><g
       id="g24"><g
         clip-path="url(#clipPath28)"
         id="g26"><g
           transform="translate(109.5835,482.1833)"
           id="g32"><path
             id="path34"
             style="fill:#ffffff;fill-opacity:1;fill-rule:nonzero;stroke:none"
             d="m 0,0 c 0,-4.616 1.396,-8.396 4.19,-11.34 2.792,-2.947 6.194,-4.418 10.202,-4.418 4.008,0 7.5,1.456 10.475,4.372 2.975,2.915 4.463,6.695 4.463,11.34 0,4.645 -1.456,8.501 -4.372,11.568 -2.914,3.066 -6.408,4.6 -10.475,4.6 -4.069,0 -7.501,-1.534 -10.293,-4.6 C 1.396,8.455 0,4.614 0,0 m 15.941,25.049 c 6.497,0 12.053,-2.248 16.668,-6.741 4.615,-4.495 6.923,-10.475 6.923,-17.944 0,-7.469 -2.293,-13.542 -6.877,-18.218 -4.586,-4.677 -9.928,-7.013 -16.031,-7.013 -6.103,0 -11.584,2.671 -16.442,8.016 l 0,-7.288 -10.202,0 0,67.588 10.202,0 0,-27.6 c 4.008,6.132 9.26,9.2 15.759,9.2" /></g><g
           transform="translate(163.3252,485.8264)"
           id="g36"><path
             id="path38"
             style="fill:#ffffff;fill-opacity:1;fill-rule:nonzero;stroke:none"
             d="m 0,0 27.781,0 c 0,4.067 -1.275,7.196 -3.825,9.382 -2.551,2.186 -5.693,3.279 -9.428,3.279 -3.734,0 -7.091,-1.139 -10.065,-3.415 C 1.487,6.968 0,3.886 0,0 M 37.984,-8.016 0,-8.016 c 0.242,-3.522 1.852,-6.361 4.827,-8.517 2.975,-2.155 6.376,-3.233 10.202,-3.233 6.072,0 10.687,1.913 13.845,5.74 l 5.83,-6.378 C 29.48,-25.81 22.681,-28.51 14.3,-28.51 c -6.801,0 -12.585,2.26 -17.351,6.785 -4.769,4.524 -7.151,10.597 -7.151,18.219 0,7.619 2.428,13.676 7.286,18.171 4.858,4.493 10.581,6.741 17.171,6.741 6.588,0 12.19,-1.989 16.806,-5.967 4.614,-3.978 6.923,-9.458 6.923,-16.44 l 0,-7.015 z" /></g><g
           transform="translate(420.9321,436.4714)"
           id="g40"><path
             id="path42"
             style="fill:#67c3d1;fill-opacity:1;fill-rule:nonzero;stroke:none"
             d="m 0,0 c -2.237,0 -4.162,0.76 -5.773,2.282 -1.613,1.522 -2.418,3.511 -2.418,5.97 0,2.458 0.841,4.458 2.524,6 1.682,1.541 3.732,2.312 6.15,2.312 2.419,0 4.464,-0.836 6.137,-2.509 L 4.625,11.607 c -1.391,1.209 -2.792,1.813 -4.202,1.813 -1.411,0 -2.635,-0.468 -3.673,-1.405 -1.038,-0.937 -1.556,-2.146 -1.556,-3.627 0,-1.481 0.514,-2.736 1.542,-3.763 1.027,-1.028 2.291,-1.542 3.793,-1.542 1.501,0 2.917,0.685 4.247,2.056 L 6.77,2.962 C 4.816,0.987 2.559,0 0,0" /></g><g
           transform="translate(433.1279,440.9602)"
           id="g44"><path
             id="path46"
             style="fill:#67c3d1;fill-opacity:1;fill-rule:nonzero;stroke:none"
             d="m 0,0 c 0.957,-0.978 2.172,-1.466 3.643,-1.466 1.47,0 2.685,0.488 3.642,1.466 0.957,0.977 1.436,2.241 1.436,3.793 0,1.552 -0.479,2.816 -1.436,3.794 C 6.328,8.564 5.113,9.053 3.643,9.053 2.172,9.053 0.957,8.564 0,7.587 -0.957,6.609 -1.436,5.345 -1.436,3.793 -1.436,2.241 -0.957,0.977 0,0 M 9.688,-2.086 C 8.076,-3.688 6.061,-4.489 3.643,-4.489 c -2.418,0 -4.433,0.801 -6.045,2.403 -1.613,1.602 -2.418,3.562 -2.418,5.879 0,2.317 0.805,4.277 2.418,5.879 1.612,1.602 3.627,2.404 6.045,2.404 2.418,0 4.433,-0.802 6.045,-2.404 C 11.3,8.07 12.106,6.11 12.106,3.793 12.106,1.476 11.3,-0.484 9.688,-2.086" /></g><g
           transform="translate(449.9189,444.6779)"
           id="g48"><path
             id="path50"
             style="fill:#67c3d1;fill-opacity:1;fill-rule:nonzero;stroke:none"
             d="m 0,0 c 0,-1.542 0.493,-2.796 1.481,-3.763 0.987,-0.967 2.146,-1.451 3.476,-1.451 1.33,0 2.458,0.488 3.386,1.466 0.926,0.977 1.389,2.231 1.389,3.763 0,1.531 -0.463,2.811 -1.389,3.839 C 7.415,4.881 6.276,5.396 4.927,5.396 3.576,5.396 2.418,4.881 1.451,3.854 0.483,2.826 0,1.542 0,0 m -1.118,-5.909 c -1.512,1.531 -2.268,3.546 -2.268,6.045 0,2.499 0.776,4.493 2.327,5.985 1.552,1.491 3.402,2.237 5.547,2.237 2.147,0 3.874,-0.907 5.184,-2.721 l 0,8.826 3.386,0 0,-22.428 -3.386,0 0,2.419 C 8.423,-7.32 6.599,-8.207 4.201,-8.207 c -2.035,0 -3.808,0.766 -5.319,2.298" /></g><g
           transform="translate(467.8154,445.9323)"
           id="g52"><path
             id="path54"
             style="fill:#67c3d1;fill-opacity:1;fill-rule:nonzero;stroke:none"
             d="M 0,0 9.219,0 C 9.219,1.35 8.796,2.388 7.95,3.113 7.104,3.839 6.061,4.202 4.821,4.202 3.582,4.202 2.469,3.824 1.481,3.068 0.494,2.313 0,1.29 0,0 M 12.604,-2.66 0,-2.66 c 0.081,-1.169 0.615,-2.111 1.603,-2.826 0.987,-0.716 2.115,-1.073 3.384,-1.073 2.016,0 3.547,0.635 4.595,1.904 l 1.935,-2.116 c -1.734,-1.793 -3.991,-2.69 -6.771,-2.69 -2.258,0 -4.177,0.751 -5.758,2.252 -1.583,1.501 -2.373,3.516 -2.373,6.045 0,2.529 0.806,4.539 2.418,6.03 1.612,1.491 3.511,2.238 5.697,2.238 2.187,0 4.046,-0.661 5.578,-1.98 1.531,-1.321 2.296,-3.139 2.296,-5.457 l 0,-2.327 z" /></g><g
           transform="translate(342.6743,444.7234)"
           id="g56"><path
             id="path58"
             style="fill:#ffffff;fill-opacity:1;fill-rule:nonzero;stroke:none"
             d="m 0,0 c 0,-1.532 0.463,-2.786 1.391,-3.763 0.926,-0.978 2.055,-1.466 3.385,-1.466 1.33,0 2.488,0.483 3.475,1.451 0.988,0.967 1.482,2.221 1.482,3.763 0,1.541 -0.483,2.821 -1.451,3.839 C 7.315,4.841 6.156,5.35 4.806,5.35 3.456,5.35 2.317,4.841 1.391,3.824 0.463,2.806 0,1.531 0,0 m 5.29,8.313 c 2.156,0 4,-0.747 5.531,-2.238 1.531,-1.491 2.297,-3.475 2.297,-5.954 0,-2.479 -0.761,-4.494 -2.282,-6.046 -1.522,-1.552 -3.294,-2.327 -5.32,-2.327 -2.025,0 -3.844,0.887 -5.455,2.66 l 0,-2.418 -3.386,0 0,22.428 3.386,0 0,-9.159 c 1.33,2.035 3.072,3.054 5.229,3.054" /></g><g
           transform="translate(360.5078,445.9323)"
           id="g60"><path
             id="path62"
             style="fill:#ffffff;fill-opacity:1;fill-rule:nonzero;stroke:none"
             d="m 0,0 9.219,0 c 0,1.35 -0.423,2.388 -1.27,3.113 C 7.103,3.839 6.061,4.202 4.821,4.202 3.582,4.202 2.468,3.824 1.481,3.068 0.494,2.313 0,1.29 0,0 M 12.604,-2.66 0,-2.66 c 0.08,-1.169 0.614,-2.111 1.602,-2.826 0.987,-0.716 2.116,-1.073 3.385,-1.073 2.015,0 3.547,0.635 4.595,1.904 l 1.934,-2.116 c -1.733,-1.793 -3.99,-2.69 -6.77,-2.69 -2.258,0 -4.177,0.751 -5.759,2.252 -1.582,1.501 -2.372,3.516 -2.372,6.045 0,2.529 0.805,4.539 2.418,6.03 1.612,1.491 3.51,2.238 5.697,2.238 2.187,0 4.045,-0.661 5.577,-1.98 1.531,-1.321 2.297,-3.139 2.297,-5.457 l 0,-2.327 z" /></g><g
           transform="translate(378.9453,442.7224)"
           id="g64"><path
             id="path66"
             style="fill:#67c3d1;fill-opacity:1;fill-rule:nonzero;stroke:none"
             d="m 0,0 14.22,-6.7 0,3.953 -10.024,4.746 10.024,4.622 0,3.921 L 0,3.842 0,0 Z m 14.69,-7.441 -15.16,7.142 0,4.44 0.135,0.063 15.025,7.08 0,-4.965 -9.383,-4.325 9.383,-4.443 0,-4.992 z" /></g><g
           transform="translate(484.5996,439.9758)"
           id="g68"><path
             id="path70"
             style="fill:#67c3d1;fill-opacity:1;fill-rule:nonzero;stroke:none"
             d="m 0,0 0,-3.954 14.22,6.701 0,3.842 L 0,13.289 0,9.367 10.023,4.746 0,0 Z m -0.471,-4.695 0,4.993 9.383,4.442 -9.383,4.326 0,4.965 15.16,-7.144 0,-4.439 -0.134,-0.064 -15.026,-7.079 z" /></g><g
           transform="translate(396.6899,432.446)"
           id="g72"><path
             id="path74"
             style="fill:#67c3d1;fill-opacity:1;fill-rule:nonzero;stroke:none"
             d="m 0,0 4.129,0 11.916,25.299 -4.047,0 L 0,0 Z m 4.428,-0.471 -5.172,0 12.444,26.241 5.087,0 L 4.428,-0.471 Z" /></g><path
           id="path76"
           style="fill:#273038;fill-opacity:1;fill-rule:nonzero;stroke:none"
           d="m 798.26,337.062 -217.085,0 0,217.085 217.085,0 0,-217.085 z" /><g
           transform="translate(664.8936,388.1013)"
           id="g78"><path
             id="path80"
             style="fill:#67c3d1;fill-opacity:1;fill-rule:nonzero;stroke:none"
             d="m 0,0 c -3.078,0 -5.727,1.046 -7.944,3.14 -2.219,2.093 -3.327,4.832 -3.327,8.215 0,3.382 1.157,6.135 3.472,8.256 2.316,2.121 5.137,3.182 8.464,3.182 3.327,0 6.142,-1.151 8.443,-3.453 L 6.363,15.972 c -1.913,1.663 -3.841,2.495 -5.781,2.495 -1.941,0 -3.625,-0.645 -5.054,-1.934 -1.427,-1.289 -2.141,-2.953 -2.141,-4.991 0,-2.038 0.707,-3.764 2.121,-5.179 1.414,-1.414 3.153,-2.121 5.22,-2.121 2.065,0 4.013,0.943 5.843,2.829 L 9.316,4.076 C 6.627,1.358 3.521,0 0,0" /></g><g
           transform="translate(681.6758,394.278)"
           id="g82"><path
             id="path84"
             style="fill:#67c3d1;fill-opacity:1;fill-rule:nonzero;stroke:none"
             d="m 0,0 c 1.317,-1.345 2.987,-2.018 5.013,-2.018 2.023,0 3.694,0.673 5.011,2.018 C 11.341,1.344 12,3.084 12,5.22 12,7.354 11.341,9.094 10.024,10.439 8.707,11.784 7.036,12.457 5.013,12.457 2.987,12.457 1.317,11.784 0,10.439 -1.317,9.094 -1.976,7.354 -1.976,5.22 -1.976,3.084 -1.317,1.344 0,0 M 13.331,-2.871 C 11.112,-5.075 8.34,-6.177 5.013,-6.177 c -3.328,0 -6.101,1.102 -8.319,3.306 -2.219,2.205 -3.328,4.902 -3.328,8.091 0,3.188 1.109,5.885 3.328,8.09 2.218,2.204 4.991,3.306 8.319,3.306 3.327,0 6.099,-1.102 8.318,-3.306 2.218,-2.205 3.327,-4.902 3.327,-8.09 0,-3.189 -1.109,-5.886 -3.327,-8.091" /></g><g
           transform="translate(704.7803,399.3938)"
           id="g86"><path
             id="path88"
             style="fill:#67c3d1;fill-opacity:1;fill-rule:nonzero;stroke:none"
             d="m 0,0 c 0,-2.122 0.68,-3.847 2.039,-5.179 1.357,-1.33 2.952,-1.996 4.782,-1.996 1.83,0 3.383,0.672 4.659,2.017 1.275,1.345 1.914,3.071 1.914,5.179 0,2.106 -0.639,3.868 -1.914,5.282 C 10.204,6.717 8.638,7.424 6.78,7.424 4.922,7.424 3.327,6.717 1.997,5.303 0.666,3.889 0,2.121 0,0 m -1.538,-8.132 c -2.08,2.107 -3.12,4.881 -3.12,8.319 0,3.438 1.067,6.183 3.203,8.235 2.135,2.052 4.679,3.078 7.632,3.078 2.953,0 5.331,-1.247 7.133,-3.743 l 0,12.145 4.659,0 0,-30.862 -4.659,0 0,3.328 c -1.72,-2.441 -4.229,-3.66 -7.528,-3.66 -2.802,0 -5.241,1.053 -7.32,3.16" /></g><g
           transform="translate(729.4082,401.1198)"
           id="g90"><path
             id="path92"
             style="fill:#67c3d1;fill-opacity:1;fill-rule:nonzero;stroke:none"
             d="m 0,0 12.686,0 c 0,1.857 -0.582,3.286 -1.748,4.284 C 9.773,5.282 8.339,5.781 6.634,5.781 4.929,5.781 3.396,5.261 2.038,4.222 0.679,3.182 0,1.774 0,0 M 17.344,-3.66 0,-3.66 c 0.11,-1.609 0.845,-2.905 2.204,-3.889 1.359,-0.985 2.911,-1.477 4.658,-1.477 2.773,0 4.88,0.874 6.323,2.621 l 2.662,-2.912 c -2.386,-2.469 -5.491,-3.702 -9.318,-3.702 -3.105,0 -5.747,1.033 -7.923,3.099 -2.177,2.066 -3.264,4.838 -3.264,8.319 0,3.479 1.108,6.245 3.326,8.297 2.219,2.052 4.832,3.078 7.841,3.078 3.009,0 5.566,-0.908 7.674,-2.724 2.107,-1.817 3.161,-4.319 3.161,-7.508 l 0,-3.202 z" /></g><g
           transform="translate(607.1172,396.7024)"
           id="g94"><path
             id="path96"
             style="fill:#67c3d1;fill-opacity:1;fill-rule:nonzero;stroke:none"
             d="m 0,0 19.567,-9.22 0,5.441 -13.793,6.53 13.793,6.359 0,5.397 L 0,5.287 0,0 Z m 20.215,-10.24 -20.861,9.829 0,6.109 0.185,0.087 20.676,9.742 0,-6.831 -12.911,-5.952 12.911,-6.114 0,-6.87 z" /></g><g
           transform="translate(752.5029,392.9236)"
           id="g98"><path
             id="path100"
             style="fill:#67c3d1;fill-opacity:1;fill-rule:nonzero;stroke:none"
             d="m 0,0 0,-5.441 19.566,9.22 0,5.287 L 0,18.286 0,12.889 13.793,6.53 0,0 Z m -0.647,-6.461 0,6.87 12.911,6.113 -12.911,5.953 0,6.831 20.861,-9.829 0,-6.109 -0.186,-0.087 -20.675,-9.742 z" /></g><g
           transform="translate(631.5352,382.5617)"
           id="g102"><path
             id="path104"
             style="fill:#67c3d1;fill-opacity:1;fill-rule:nonzero;stroke:none"
             d="m 0,0 5.682,0 16.397,34.813 -5.569,0 L 0,0 Z m 6.093,-0.647 -7.116,0 17.123,36.107 7,0 L 6.093,-0.647 Z" /></g><g
           transform="translate(647.1787,465.4353)"
           id="g106"><path
             id="path108"
             style="fill:#ffffff;fill-opacity:1;fill-rule:nonzero;stroke:none"
             d="m 0,0 c 0,-4.772 1.443,-8.681 4.332,-11.725 2.888,-3.046 6.404,-4.567 10.548,-4.567 4.144,0 7.754,1.505 10.83,4.52 3.076,3.014 4.615,6.922 4.615,11.725 0,4.802 -1.507,8.789 -4.52,11.96 -3.014,3.17 -6.625,4.756 -10.83,4.756 -4.207,0 -7.755,-1.586 -10.643,-4.756 C 1.443,8.742 0,4.771 0,0 m 16.481,25.898 c 6.718,0 12.462,-2.323 17.234,-6.969 4.771,-4.647 7.157,-10.83 7.157,-18.553 0,-7.722 -2.37,-14.001 -7.11,-18.836 -4.741,-4.835 -10.265,-7.25 -16.575,-7.25 -6.31,0 -11.976,2.762 -16.999,8.288 l 0,-7.536 -10.547,0 0,69.88 10.547,0 0,-28.536 c 4.144,6.341 9.575,9.512 16.293,9.512" /></g><g
           transform="translate(702.7432,469.2019)"
           id="g110"><path
             id="path112"
             style="fill:#ffffff;fill-opacity:1;fill-rule:nonzero;stroke:none"
             d="m 0,0 28.723,0 c 0,4.206 -1.319,7.44 -3.955,9.701 -2.638,2.26 -5.886,3.39 -9.747,3.39 C 11.159,13.091 7.689,11.914 4.614,9.56 1.537,7.205 0,4.018 0,0 M 39.271,-8.288 0,-8.288 c 0.249,-3.641 1.914,-6.577 4.99,-8.805 3.076,-2.229 6.593,-3.343 10.548,-3.343 6.278,0 11.049,1.978 14.315,5.934 l 6.027,-6.594 c -5.401,-5.589 -12.431,-8.381 -21.095,-8.381 -7.033,0 -13.013,2.338 -17.94,7.016 -4.93,4.677 -7.393,10.956 -7.393,18.836 0,7.878 2.51,14.141 7.533,18.787 5.023,4.646 10.94,6.97 17.752,6.97 6.813,0 12.605,-2.057 17.377,-6.169 4.77,-4.112 7.157,-9.779 7.157,-16.999 l 0,-7.252 z" /></g><path
           id="path114"
           style="fill:none;stroke:#273038;stroke-width:0.5;stroke-linecap:butt;stroke-linejoin:miter;stroke-miterlimit:10;stroke-dasharray:none;stroke-opacity:1"
           d="m 259.114,41.716 -217.084,0 0,217.085 217.084,0 0,-217.085 z" /><path
           id="path116"
           style="fill:none;stroke:#273038;stroke-width:0.5;stroke-linecap:butt;stroke-linejoin:miter;stroke-miterlimit:10;stroke-dasharray:none;stroke-opacity:1"
           d="m 528.733,41.716 -217.085,0 0,217.085 217.085,0 0,-217.085 z" /><g
           transform="translate(101.1938,102.9372)"
           id="g118"><path
             id="path120"
             style="fill:#67c3d1;fill-opacity:1;fill-rule:nonzero;stroke:none"
             d="m 0,0 41.152,-19.391 0,11.444 -29.007,13.733 29.007,13.374 0,11.351 L 0,11.119 0,0 Z m 42.513,-21.535 -43.874,20.671 0,12.847 0.391,0.184 43.483,20.489 0,-14.368 L 15.36,5.771 42.513,-7.086 l 0,-14.449 z" /></g><g
           transform="translate(152.5483,71.8894)"
           id="g122"><path
             id="path124"
             style="fill:#67c3d1;fill-opacity:1;fill-rule:nonzero;stroke:none"
             d="m 0,0 11.949,0 34.486,73.217 -11.714,0 L 0,0 Z m 12.813,-1.361 -14.965,0 36.012,75.939 14.721,0 -35.768,-75.939 z" /></g><g
           transform="translate(109.5835,186.8366)"
           id="g126"><path
             id="path128"
             style="fill:#273038;fill-opacity:1;fill-rule:nonzero;stroke:none"
             d="m 0,0 c 0,-4.616 1.396,-8.396 4.19,-11.34 2.792,-2.946 6.194,-4.418 10.202,-4.418 4.008,0 7.5,1.456 10.475,4.372 2.975,2.915 4.463,6.696 4.463,11.34 0,4.646 -1.456,8.501 -4.372,11.568 -2.914,3.066 -6.408,4.6 -10.475,4.6 -4.069,0 -7.501,-1.534 -10.293,-4.6 C 1.396,8.455 0,4.614 0,0 m 15.941,25.049 c 6.497,0 12.053,-2.247 16.668,-6.74 4.615,-4.496 6.923,-10.476 6.923,-17.945 0,-7.468 -2.293,-13.542 -6.877,-18.218 -4.586,-4.677 -9.928,-7.013 -16.031,-7.013 -6.103,0 -11.584,2.672 -16.442,8.016 l 0,-7.288 -10.202,0 0,67.588 10.202,0 0,-27.6 c 4.008,6.132 9.26,9.2 15.759,9.2" /></g><g
           transform="translate(163.3252,190.4802)"
           id="g130"><path
             id="path132"
             style="fill:#273038;fill-opacity:1;fill-rule:nonzero;stroke:none"
             d="m 0,0 27.781,0 c 0,4.067 -1.275,7.195 -3.825,9.382 -2.551,2.186 -5.693,3.279 -9.428,3.279 -3.734,0 -7.091,-1.139 -10.065,-3.416 C 1.487,6.968 0,3.886 0,0 M 37.984,-8.016 0,-8.016 c 0.242,-3.522 1.852,-6.362 4.827,-8.517 2.975,-2.155 6.376,-3.234 10.202,-3.234 6.072,0 10.687,1.913 13.845,5.74 l 5.83,-6.377 C 29.48,-25.81 22.681,-28.511 14.3,-28.511 c -6.801,0 -12.585,2.261 -17.351,6.785 -4.769,4.525 -7.151,10.597 -7.151,18.219 0,7.62 2.428,13.677 7.286,18.172 4.858,4.493 10.581,6.74 17.171,6.74 6.588,0 12.19,-1.989 16.806,-5.966 4.614,-3.978 6.923,-9.459 6.923,-16.441 l 0,-7.014 z" /></g><g
           transform="translate(420.9321,141.1247)"
           id="g134"><path
             id="path136"
             style="fill:#67c3d1;fill-opacity:1;fill-rule:nonzero;stroke:none"
             d="m 0,0 c -2.237,0 -4.162,0.761 -5.773,2.282 -1.613,1.522 -2.418,3.512 -2.418,5.97 0,2.458 0.841,4.459 2.524,6 1.682,1.542 3.732,2.312 6.15,2.312 2.419,0 4.464,-0.836 6.137,-2.508 L 4.625,11.607 c -1.391,1.209 -2.792,1.814 -4.202,1.814 -1.411,0 -2.635,-0.469 -3.673,-1.405 -1.038,-0.938 -1.556,-2.147 -1.556,-3.627 0,-1.482 0.514,-2.737 1.542,-3.764 1.027,-1.028 2.291,-1.542 3.793,-1.542 1.501,0 2.917,0.686 4.247,2.056 L 6.77,2.962 C 4.816,0.987 2.559,0 0,0" /></g><g
           transform="translate(433.1279,145.614)"
           id="g138"><path
             id="path140"
             style="fill:#67c3d1;fill-opacity:1;fill-rule:nonzero;stroke:none"
             d="m 0,0 c 0.957,-0.978 2.172,-1.466 3.643,-1.466 1.47,0 2.685,0.488 3.642,1.466 0.957,0.977 1.436,2.241 1.436,3.793 0,1.552 -0.479,2.815 -1.436,3.794 C 6.328,8.563 5.113,9.053 3.643,9.053 2.172,9.053 0.957,8.563 0,7.587 -0.957,6.608 -1.436,5.345 -1.436,3.793 -1.436,2.241 -0.957,0.977 0,0 M 9.688,-2.086 C 8.076,-3.688 6.061,-4.489 3.643,-4.489 c -2.418,0 -4.433,0.801 -6.045,2.403 -1.613,1.602 -2.418,3.562 -2.418,5.879 0,2.317 0.805,4.277 2.418,5.879 1.612,1.602 3.627,2.403 6.045,2.403 2.418,0 4.433,-0.801 6.045,-2.403 C 11.3,8.07 12.106,6.11 12.106,3.793 12.106,1.476 11.3,-0.484 9.688,-2.086" /></g><g
           transform="translate(449.9189,149.3318)"
           id="g142"><path
             id="path144"
             style="fill:#67c3d1;fill-opacity:1;fill-rule:nonzero;stroke:none"
             d="m 0,0 c 0,-1.542 0.493,-2.796 1.481,-3.764 0.987,-0.966 2.146,-1.45 3.476,-1.45 1.33,0 2.458,0.488 3.386,1.466 0.926,0.977 1.389,2.231 1.389,3.763 0,1.531 -0.463,2.811 -1.389,3.839 C 7.415,4.881 6.276,5.396 4.927,5.396 3.576,5.396 2.418,4.881 1.451,3.854 0.483,2.826 0,1.541 0,0 m -1.118,-5.909 c -1.512,1.531 -2.268,3.546 -2.268,6.045 0,2.498 0.776,4.493 2.327,5.984 1.552,1.491 3.402,2.237 5.547,2.237 2.147,0 3.874,-0.906 5.184,-2.72 l 0,8.826 3.386,0 0,-22.428 -3.386,0 0,2.418 c -1.249,-1.773 -3.073,-2.66 -5.471,-2.66 -2.035,0 -3.808,0.766 -5.319,2.298" /></g><g
           transform="translate(467.8154,150.5857)"
           id="g146"><path
             id="path148"
             style="fill:#67c3d1;fill-opacity:1;fill-rule:nonzero;stroke:none"
             d="M 0,0 9.219,0 C 9.219,1.35 8.796,2.388 7.95,3.113 7.104,3.839 6.061,4.202 4.821,4.202 3.582,4.202 2.469,3.824 1.481,3.068 0.494,2.313 0,1.29 0,0 M 12.604,-2.66 0,-2.66 c 0.081,-1.168 0.615,-2.111 1.603,-2.826 0.987,-0.715 2.115,-1.073 3.384,-1.073 2.016,0 3.547,0.635 4.595,1.905 l 1.935,-2.117 c -1.734,-1.793 -3.991,-2.69 -6.771,-2.69 -2.258,0 -4.177,0.751 -5.758,2.252 -1.583,1.501 -2.373,3.517 -2.373,6.046 0,2.528 0.806,4.538 2.418,6.029 1.612,1.491 3.511,2.238 5.697,2.238 2.187,0 4.046,-0.661 5.578,-1.98 1.531,-1.32 2.296,-3.139 2.296,-5.456 l 0,-2.328 z" /></g><g
           transform="translate(342.6743,149.3767)"
           id="g150"><path
             id="path152"
             style="fill:#273038;fill-opacity:1;fill-rule:nonzero;stroke:none"
             d="m 0,0 c 0,-1.531 0.463,-2.786 1.391,-3.763 0.926,-0.977 2.055,-1.466 3.385,-1.466 1.33,0 2.488,0.484 3.475,1.451 0.988,0.967 1.482,2.221 1.482,3.763 0,1.541 -0.483,2.821 -1.451,3.839 C 7.315,4.841 6.156,5.351 4.806,5.351 3.456,5.351 2.317,4.841 1.391,3.824 0.463,2.806 0,1.531 0,0 m 5.29,8.313 c 2.156,0 4,-0.747 5.531,-2.238 1.531,-1.491 2.297,-3.475 2.297,-5.954 0,-2.478 -0.761,-4.494 -2.282,-6.046 -1.522,-1.552 -3.294,-2.327 -5.32,-2.327 -2.025,0 -3.844,0.887 -5.455,2.66 l 0,-2.418 -3.386,0 0,22.428 3.386,0 0,-9.158 c 1.33,2.035 3.072,3.053 5.229,3.053" /></g><g
           transform="translate(360.5078,150.5857)"
           id="g154"><path
             id="path156"
             style="fill:#273038;fill-opacity:1;fill-rule:nonzero;stroke:none"
             d="m 0,0 9.219,0 c 0,1.35 -0.423,2.388 -1.27,3.113 C 7.103,3.839 6.061,4.202 4.821,4.202 3.582,4.202 2.468,3.824 1.481,3.068 0.494,2.313 0,1.29 0,0 M 12.604,-2.66 0,-2.66 c 0.08,-1.168 0.614,-2.111 1.602,-2.826 0.987,-0.715 2.116,-1.073 3.385,-1.073 2.015,0 3.547,0.635 4.595,1.905 l 1.934,-2.117 c -1.733,-1.793 -3.99,-2.69 -6.77,-2.69 -2.258,0 -4.177,0.751 -5.759,2.252 -1.582,1.501 -2.372,3.517 -2.372,6.046 0,2.528 0.805,4.538 2.418,6.029 1.612,1.491 3.51,2.238 5.697,2.238 2.187,0 4.045,-0.661 5.577,-1.98 1.531,-1.32 2.297,-3.139 2.297,-5.456 l 0,-2.328 z" /></g><g
           transform="translate(378.9453,147.3757)"
           id="g158"><path
             id="path160"
             style="fill:#67c3d1;fill-opacity:1;fill-rule:nonzero;stroke:none"
             d="m 0,0 14.22,-6.7 0,3.954 -10.024,4.745 10.024,4.622 0,3.922 L 0,3.842 0,0 Z m 14.69,-7.441 -15.16,7.142 0,4.44 0.135,0.063 15.025,7.08 0,-4.965 -9.383,-4.325 9.383,-4.442 0,-4.993 z" /></g><g
           transform="translate(484.5996,144.6296)"
           id="g162"><path
             id="path164"
             style="fill:#67c3d1;fill-opacity:1;fill-rule:nonzero;stroke:none"
             d="m 0,0 0,-3.954 14.22,6.7 0,3.842 L 0,13.289 0,9.367 10.023,4.745 0,0 Z m -0.471,-4.695 0,4.993 9.383,4.442 -9.383,4.325 0,4.965 15.16,-7.143 0,-4.44 -0.134,-0.063 -15.026,-7.079 z" /></g><g
           transform="translate(396.6899,137.0993)"
           id="g166"><path
             id="path168"
             style="fill:#67c3d1;fill-opacity:1;fill-rule:nonzero;stroke:none"
             d="m 0,0 4.129,0 11.916,25.3 -4.047,0 L 0,0 Z m 4.428,-0.471 -5.172,0 12.444,26.241 5.087,0 L 4.428,-0.471 Z" /></g><path
           id="path170"
           style="fill:none;stroke:#273038;stroke-width:0.5;stroke-linecap:butt;stroke-linejoin:miter;stroke-miterlimit:10;stroke-dasharray:none;stroke-opacity:1"
           d="m 798.26,41.716 -217.085,0 0,217.085 217.085,0 0,-217.085 z" /><g
           transform="translate(664.8936,92.7546)"
           id="g172"><path
             id="path174"
             style="fill:#67c3d1;fill-opacity:1;fill-rule:nonzero;stroke:none"
             d="m 0,0 c -3.078,0 -5.727,1.047 -7.944,3.141 -2.219,2.092 -3.327,4.831 -3.327,8.214 0,3.382 1.157,6.135 3.472,8.256 2.316,2.121 5.137,3.182 8.464,3.182 3.327,0 6.142,-1.151 8.443,-3.452 L 6.363,15.972 c -1.913,1.664 -3.841,2.496 -5.781,2.496 -1.941,0 -3.625,-0.646 -5.054,-1.935 -1.427,-1.289 -2.141,-2.953 -2.141,-4.991 0,-2.038 0.707,-3.764 2.121,-5.179 1.414,-1.414 3.153,-2.121 5.22,-2.121 2.065,0 4.013,0.943 5.843,2.828 L 9.316,4.076 C 6.627,1.358 3.521,0 0,0" /></g><g
           transform="translate(681.6758,98.9314)"
           id="g176"><path
             id="path178"
             style="fill:#67c3d1;fill-opacity:1;fill-rule:nonzero;stroke:none"
             d="m 0,0 c 1.317,-1.345 2.987,-2.018 5.013,-2.018 2.023,0 3.694,0.673 5.011,2.018 C 11.341,1.345 12,3.084 12,5.22 12,7.354 11.341,9.095 10.024,10.439 8.707,11.784 7.036,12.457 5.013,12.457 2.987,12.457 1.317,11.784 0,10.439 -1.317,9.095 -1.976,7.354 -1.976,5.22 -1.976,3.084 -1.317,1.345 0,0 M 13.331,-2.87 C 11.112,-5.074 8.34,-6.177 5.013,-6.177 c -3.328,0 -6.101,1.103 -8.319,3.307 -2.219,2.204 -3.328,4.901 -3.328,8.09 0,3.188 1.109,5.885 3.328,8.09 2.218,2.204 4.991,3.306 8.319,3.306 3.327,0 6.099,-1.102 8.318,-3.306 2.218,-2.205 3.327,-4.902 3.327,-8.09 0,-3.189 -1.109,-5.886 -3.327,-8.09" /></g><g
           transform="translate(704.7803,104.0476)"
           id="g180"><path
             id="path182"
             style="fill:#67c3d1;fill-opacity:1;fill-rule:nonzero;stroke:none"
             d="m 0,0 c 0,-2.122 0.68,-3.848 2.039,-5.179 1.357,-1.331 2.952,-1.996 4.782,-1.996 1.83,0 3.383,0.672 4.659,2.017 1.275,1.345 1.914,3.071 1.914,5.179 0,2.106 -0.639,3.868 -1.914,5.282 C 10.204,6.717 8.638,7.424 6.78,7.424 4.922,7.424 3.327,6.717 1.997,5.303 0.666,3.889 0,2.121 0,0 m -1.538,-8.132 c -2.08,2.107 -3.12,4.88 -3.12,8.319 0,3.438 1.067,6.183 3.203,8.235 2.135,2.052 4.679,3.078 7.632,3.078 2.953,0 5.331,-1.248 7.133,-3.743 l 0,12.145 4.659,0 0,-30.862 -4.659,0 0,3.327 c -1.72,-2.44 -4.229,-3.66 -7.528,-3.66 -2.802,0 -5.241,1.054 -7.32,3.161" /></g><g
           transform="translate(729.4082,105.7732)"
           id="g184"><path
             id="path186"
             style="fill:#67c3d1;fill-opacity:1;fill-rule:nonzero;stroke:none"
             d="m 0,0 12.686,0 c 0,1.857 -0.582,3.286 -1.748,4.284 C 9.773,5.282 8.339,5.781 6.634,5.781 4.929,5.781 3.396,5.262 2.038,4.222 0.679,3.182 0,1.774 0,0 M 17.344,-3.66 0,-3.66 c 0.11,-1.609 0.845,-2.904 2.204,-3.889 1.359,-0.984 2.911,-1.476 4.658,-1.476 2.773,0 4.88,0.873 6.323,2.62 l 2.662,-2.911 c -2.386,-2.469 -5.491,-3.703 -9.318,-3.703 -3.105,0 -5.747,1.033 -7.923,3.099 -2.177,2.066 -3.264,4.839 -3.264,8.318 0,3.48 1.108,6.247 3.326,8.298 2.219,2.052 4.832,3.078 7.841,3.078 3.009,0 5.566,-0.908 7.674,-2.724 2.107,-1.817 3.161,-4.319 3.161,-7.507 l 0,-3.203 z" /></g><g
           transform="translate(607.1172,101.3562)"
           id="g188"><path
             id="path190"
             style="fill:#67c3d1;fill-opacity:1;fill-rule:nonzero;stroke:none"
             d="m 0,0 19.567,-9.22 0,5.441 -13.793,6.53 13.793,6.359 0,5.397 L 0,5.287 0,0 Z m 20.215,-10.24 -20.861,9.829 0,6.108 0.185,0.088 20.676,9.742 0,-6.832 -12.911,-5.952 12.911,-6.113 0,-6.87 z" /></g><g
           transform="translate(752.5029,97.5769)"
           id="g192"><path
             id="path194"
             style="fill:#67c3d1;fill-opacity:1;fill-rule:nonzero;stroke:none"
             d="m 0,0 0,-5.44 19.566,9.219 0,5.287 L 0,18.286 0,12.89 13.793,6.53 0,0 Z m -0.647,-6.461 0,6.87 12.911,6.113 -12.911,5.953 0,6.832 20.861,-9.83 0,-6.109 -0.186,-0.087 -20.675,-9.742 z" /></g><g
           transform="translate(631.5352,87.2155)"
           id="g196"><path
             id="path198"
             style="fill:#67c3d1;fill-opacity:1;fill-rule:nonzero;stroke:none"
             d="m 0,0 5.682,0 16.397,34.813 -5.569,0 L 0,0 Z m 6.093,-0.647 -7.116,0 17.123,36.107 7,0 L 6.093,-0.647 Z" /></g><g
           transform="translate(647.1787,170.0886)"
           id="g200"><path
             id="path202"
             style="fill:#273038;fill-opacity:1;fill-rule:nonzero;stroke:none"
             d="m 0,0 c 0,-4.772 1.443,-8.681 4.332,-11.725 2.888,-3.046 6.404,-4.567 10.548,-4.567 4.144,0 7.754,1.506 10.83,4.521 3.076,3.013 4.615,6.921 4.615,11.724 0,4.803 -1.507,8.789 -4.52,11.96 -3.014,3.17 -6.625,4.756 -10.83,4.756 -4.207,0 -7.755,-1.586 -10.643,-4.756 C 1.443,8.742 0,4.771 0,0 m 16.481,25.898 c 6.718,0 12.462,-2.323 17.234,-6.969 4.771,-4.647 7.157,-10.83 7.157,-18.552 0,-7.723 -2.37,-14.002 -7.11,-18.837 -4.741,-4.835 -10.265,-7.25 -16.575,-7.25 -6.31,0 -11.976,2.762 -16.999,8.288 l 0,-7.535 -10.547,0 0,69.879 10.547,0 0,-28.535 c 4.144,6.341 9.575,9.511 16.293,9.511" /></g><g
           transform="translate(702.7432,173.8552)"
           id="g204"><path
             id="path206"
             style="fill:#273038;fill-opacity:1;fill-rule:nonzero;stroke:none"
             d="m 0,0 28.723,0 c 0,4.206 -1.319,7.44 -3.955,9.701 -2.638,2.26 -5.886,3.39 -9.747,3.39 C 11.159,13.091 7.689,11.914 4.614,9.56 1.537,7.205 0,4.018 0,0 M 39.271,-8.287 0,-8.287 c 0.249,-3.642 1.914,-6.577 4.99,-8.806 3.076,-2.228 6.593,-3.343 10.548,-3.343 6.278,0 11.049,1.978 14.315,5.934 l 6.027,-6.594 c -5.401,-5.589 -12.431,-8.381 -21.095,-8.381 -7.033,0 -13.013,2.338 -17.94,7.016 -4.93,4.677 -7.393,10.956 -7.393,18.836 0,7.878 2.51,14.141 7.533,18.787 5.023,4.647 10.94,6.97 17.752,6.97 6.813,0 12.605,-2.057 17.377,-6.168 4.77,-4.113 7.157,-9.78 7.157,-16.999 l 0,-7.252 z" /></g></g></g></g></svg>